<?xml version="1.0" standalone="no"?>
<!DOCTYPE svg PUBLIC "-//W3C//DTD SVG 20010904//EN"
 "http://www.w3.org/TR/2001/REC-SVG-20010904/DTD/svg10.dtd">
<svg version="1.0" xmlns="http://www.w3.org/2000/svg"
 width="900.000000pt" height="900.000000pt" viewBox="0 0 900.000000 900.000000"
 preserveAspectRatio="xMidYMid meet">
<metadata>
Created by potrace 1.14, written by Peter Selinger 2001-2017
</metadata>
<g transform="translate(0.000000,900.000000) scale(0.100000,-0.100000)"
fill="#000000" stroke="none">
<path d="M4400 7054 c-19 -3 -93 -11 -164 -20 -297 -35 -623 -148 -892 -311
-130 -79 -258 -180 -434 -344 -208 -193 -335 -290 -675 -514 -302 -200 -392
-263 -482 -342 -152 -132 -184 -252 -198 -728 -10 -351 -45 -614 -126 -950
-55 -229 -64 -291 -50 -342 25 -90 100 -143 203 -143 140 1 260 45 398 148
l74 56 168 13 c281 22 452 77 649 208 170 113 264 240 309 418 11 44 33 181
50 305 59 438 128 739 190 837 25 38 25 37 -5 -152 -34 -212 -42 -404 -24
-606 8 -89 14 -245 14 -347 -1 -214 -10 -260 -81 -408 -71 -147 -226 -294
-376 -357 -61 -25 -51 -45 57 -114 351 -225 868 -394 1426 -465 327 -42 686
-59 706 -33 6 6 13 77 16 157 8 177 48 387 107 550 138 388 413 679 865 917
131 68 296 139 515 219 179 66 385 160 475 217 302 189 485 450 575 820 75
307 104 802 55 939 -9 27 -37 70 -61 97 -156 174 -321 164 -1126 -62 -424
-120 -475 -130 -663 -131 l-160 -1 -67 33 c-43 21 -99 62 -155 114 -84 78
-203 163 -288 206 -67 33 -215 79 -315 97 -92 16 -431 29 -510 19z m662 -594
c64 -24 129 -86 158 -152 89 -202 -48 -361 -235 -272 -134 63 -204 243 -142
364 39 78 116 99 219 60z"/>
<path d="M2662 3281 c-23 -14 -93 -222 -123 -366 -33 -160 -36 -207 -13 -230
50 -49 272 -180 454 -267 570 -271 1338 -435 2106 -447 128 -2 127 -2 148 148
19 132 40 455 32 486 -9 34 -49 45 -161 45 -461 0 -1067 102 -1544 260 -289
95 -605 233 -792 346 -57 34 -83 41 -107 25z"/>
<path d="M5100 1809 c-172 -72 -201 -517 -44 -670 32 -31 41 -34 94 -34 51 0
63 4 89 29 66 63 101 175 101 321 0 206 -71 350 -178 361 -20 2 -48 -1 -62 -7z"/>
</g>
</svg>
